<?xml version="1.0" standalone="no"?>
<!DOCTYPE svg PUBLIC "-//W3C//DTD SVG 20010904//EN"
 "http://www.w3.org/TR/2001/REC-SVG-20010904/DTD/svg10.dtd">
<svg version="1.0" xmlns="http://www.w3.org/2000/svg"
 width="260.000000pt" height="260.000000pt" viewBox="0 0 260.000000 260.000000"
 preserveAspectRatio="xMidYMid meet">
<metadata>
Created by potrace 1.14, written by Peter Selinger 2001-2017
</metadata>
<g transform="translate(0.000000,260.000000) scale(0.100000,-0.100000)"
fill="#000000" stroke="none">
<path d="M1465 1685 c-121 -43 -151 -194 -54 -267 19 -14 66 -37 104 -52 168
-64 185 -77 185 -134 0 -37 -45 -78 -96 -88 -49 -9 -134 2 -197 26 -28 11 -53
20 -54 20 -2 0 -3 -20 -3 -44 l0 -44 53 -13 c28 -8 95 -14 147 -14 86 0 100 3
148 29 68 38 92 77 92 150 0 50 -4 60 -35 95 -30 33 -55 46 -153 81 -64 23
-127 51 -139 62 -29 27 -31 80 -4 107 37 37 147 40 242 7 l40 -14 -3 41 -3 42
-55 12 c-76 15 -167 15 -215 -2z"/>
<path d="M703 1668 c13 -35 220 -565 224 -575 3 -8 24 -13 52 -13 l46 0 115
291 c63 160 117 295 118 300 2 5 -14 9 -35 9 l-39 0 -94 -231 c-52 -127 -97
-232 -101 -234 -3 -2 -48 101 -100 230 l-94 235 -49 0 c-34 0 -47 -4 -43 -12z"/>
</g>
</svg>
